<svg xmlns="http://www.w3.org/2000/svg" width="72" height="75" viewBox="0 0 72 75" fill="none" aria-hidden="true">
  <path d="M36 37.289C27.3941 37.2295 19.2548 35.8067 13.0188 33.2667C7.37534 30.965 5.46456 28.6335 5.13869 27.9184C5.46456 27.2033 7.36793 24.8718 13.0188 22.5701C19.2548 20.03 27.4015 18.6073 36 18.5477V0C7.38275 0.156426 -8.93294 13.7655 5.13869 27.9184C-8.8885 42.0265 7.38275 55.6803 36 55.8367V37.289Z" fill="#06060C"/>
  <path d="M36 37.1548C44.6064 37.2145 52.7449 38.6557 58.9825 41.2319C64.626 43.5616 66.5344 45.9287 66.8611 46.6531C66.5344 47.3774 64.626 49.7445 58.9825 52.0742C52.7449 54.6504 46.4479 55.2105 36 55.2105V74.9388C64.6185 74.782 80.9327 60.9901 66.8611 46.6531C80.8882 32.3609 64.6185 18.5242 36 18.3673V37.1623V37.1548Z" fill="#06060C"/>
</svg>
